<mxfile host="app.diagrams.net" modified="2022-09-19T15:17:52.899Z" agent="5.0 (Windows)" etag="-AW_bBt6wvRpMbImwI3e" version="20.3.3" type="github" pages="2">
  <diagram id="C5RBs43oDa-KdzZeNtuy" name="Page-1">
    <mxGraphModel dx="1606" dy="774" grid="1" gridSize="10" guides="1" tooltips="1" connect="1" arrows="1" fold="1" page="1" pageScale="1" pageWidth="827" pageHeight="1169" math="0" shadow="0">
      <root>
        <mxCell id="WIyWlLk6GJQsqaUBKTNV-0" />
        <mxCell id="WIyWlLk6GJQsqaUBKTNV-1" parent="WIyWlLk6GJQsqaUBKTNV-0" />
        <mxCell id="givA4NSv166pQ2FDAP5G-19" value=" Back-End" style="rounded=1;whiteSpace=wrap;html=1;verticalAlign=top;fontSize=32;fillColor=#E5CCFF;" parent="WIyWlLk6GJQsqaUBKTNV-1" vertex="1">
          <mxGeometry x="-326" y="400" width="540" height="430" as="geometry" />
        </mxCell>
        <mxCell id="givA4NSv166pQ2FDAP5G-18" value=" Front-End" style="rounded=1;whiteSpace=wrap;html=1;verticalAlign=top;fontSize=32;fillColor=#D4E1F5;" parent="WIyWlLk6GJQsqaUBKTNV-1" vertex="1">
          <mxGeometry x="-810" y="400" width="390" height="430" as="geometry" />
        </mxCell>
        <mxCell id="givA4NSv166pQ2FDAP5G-3" style="edgeStyle=orthogonalEdgeStyle;rounded=0;orthogonalLoop=1;jettySize=auto;html=1;" parent="WIyWlLk6GJQsqaUBKTNV-1" source="givA4NSv166pQ2FDAP5G-0" target="givA4NSv166pQ2FDAP5G-1" edge="1">
          <mxGeometry relative="1" as="geometry" />
        </mxCell>
        <mxCell id="givA4NSv166pQ2FDAP5G-4" style="edgeStyle=orthogonalEdgeStyle;rounded=0;orthogonalLoop=1;jettySize=auto;html=1;" parent="WIyWlLk6GJQsqaUBKTNV-1" source="givA4NSv166pQ2FDAP5G-0" target="givA4NSv166pQ2FDAP5G-2" edge="1">
          <mxGeometry relative="1" as="geometry" />
        </mxCell>
        <mxCell id="givA4NSv166pQ2FDAP5G-0" value="&lt;div&gt;home.html&lt;/div&gt;" style="shape=image;html=1;verticalAlign=top;verticalLabelPosition=bottom;labelBackgroundColor=none;imageAspect=0;aspect=fixed;image=https://cdn1.iconfinder.com/data/icons/bootstrap-vol-3/16/filetype-html-128.png" parent="WIyWlLk6GJQsqaUBKTNV-1" vertex="1">
          <mxGeometry x="-578" y="552" width="128" height="128" as="geometry" />
        </mxCell>
        <mxCell id="givA4NSv166pQ2FDAP5G-1" value="&lt;div&gt;home.js&lt;/div&gt;" style="shape=image;html=1;verticalAlign=top;verticalLabelPosition=bottom;labelBackgroundColor=none;imageAspect=0;aspect=fixed;image=https://cdn3.iconfinder.com/data/icons/UltimateGnome/128x128/mimetypes/application-javascript.png" parent="WIyWlLk6GJQsqaUBKTNV-1" vertex="1">
          <mxGeometry x="-760" y="470" width="128" height="128" as="geometry" />
        </mxCell>
        <mxCell id="givA4NSv166pQ2FDAP5G-2" value="&lt;div&gt;home.css&lt;/div&gt;" style="shape=image;html=1;verticalAlign=top;verticalLabelPosition=bottom;labelBackgroundColor=none;imageAspect=0;aspect=fixed;image=https://cdn1.iconfinder.com/data/icons/bootstrap-vol-3/16/filetype-css-128.png" parent="WIyWlLk6GJQsqaUBKTNV-1" vertex="1">
          <mxGeometry x="-760" y="640" width="128" height="128" as="geometry" />
        </mxCell>
        <mxCell id="givA4NSv166pQ2FDAP5G-16" style="edgeStyle=orthogonalEdgeStyle;rounded=0;orthogonalLoop=1;jettySize=auto;html=1;" parent="WIyWlLk6GJQsqaUBKTNV-1" source="givA4NSv166pQ2FDAP5G-5" target="givA4NSv166pQ2FDAP5G-6" edge="1">
          <mxGeometry relative="1" as="geometry" />
        </mxCell>
        <mxCell id="givA4NSv166pQ2FDAP5G-17" style="edgeStyle=orthogonalEdgeStyle;rounded=0;orthogonalLoop=1;jettySize=auto;html=1;startArrow=classic;startFill=1;" parent="WIyWlLk6GJQsqaUBKTNV-1" source="givA4NSv166pQ2FDAP5G-5" target="givA4NSv166pQ2FDAP5G-0" edge="1">
          <mxGeometry relative="1" as="geometry" />
        </mxCell>
        <mxCell id="givA4NSv166pQ2FDAP5G-5" value="HomeControler.java" style="shape=image;html=1;verticalAlign=top;verticalLabelPosition=bottom;labelBackgroundColor=none;imageAspect=0;aspect=fixed;image=https://cdn1.iconfinder.com/data/icons/bootstrap-vol-3/16/filetype-java-128.png" parent="WIyWlLk6GJQsqaUBKTNV-1" vertex="1">
          <mxGeometry x="-310" y="552" width="128" height="128" as="geometry" />
        </mxCell>
        <mxCell id="givA4NSv166pQ2FDAP5G-14" style="edgeStyle=orthogonalEdgeStyle;rounded=0;orthogonalLoop=1;jettySize=auto;html=1;" parent="WIyWlLk6GJQsqaUBKTNV-1" source="givA4NSv166pQ2FDAP5G-6" target="givA4NSv166pQ2FDAP5G-8" edge="1">
          <mxGeometry relative="1" as="geometry" />
        </mxCell>
        <mxCell id="givA4NSv166pQ2FDAP5G-15" style="edgeStyle=orthogonalEdgeStyle;rounded=0;orthogonalLoop=1;jettySize=auto;html=1;" parent="WIyWlLk6GJQsqaUBKTNV-1" source="givA4NSv166pQ2FDAP5G-6" target="givA4NSv166pQ2FDAP5G-7" edge="1">
          <mxGeometry relative="1" as="geometry" />
        </mxCell>
        <mxCell id="givA4NSv166pQ2FDAP5G-6" value="HomeModel.java" style="shape=image;html=1;verticalAlign=top;verticalLabelPosition=bottom;labelBackgroundColor=none;imageAspect=0;aspect=fixed;image=https://cdn1.iconfinder.com/data/icons/bootstrap-vol-3/16/filetype-java-128.png" parent="WIyWlLk6GJQsqaUBKTNV-1" vertex="1">
          <mxGeometry x="-160" y="552" width="128" height="128" as="geometry" />
        </mxCell>
        <mxCell id="givA4NSv166pQ2FDAP5G-7" value="Progress.java" style="shape=image;html=1;verticalAlign=top;verticalLabelPosition=bottom;labelBackgroundColor=none;imageAspect=0;aspect=fixed;image=https://cdn1.iconfinder.com/data/icons/bootstrap-vol-3/16/filetype-java-128.png" parent="WIyWlLk6GJQsqaUBKTNV-1" vertex="1">
          <mxGeometry x="20" y="470" width="128" height="128" as="geometry" />
        </mxCell>
        <mxCell id="givA4NSv166pQ2FDAP5G-8" value="DataModel.java" style="shape=image;html=1;verticalAlign=top;verticalLabelPosition=bottom;labelBackgroundColor=none;imageAspect=0;aspect=fixed;image=https://cdn1.iconfinder.com/data/icons/bootstrap-vol-3/16/filetype-java-128.png" parent="WIyWlLk6GJQsqaUBKTNV-1" vertex="1">
          <mxGeometry x="20" y="640" width="128" height="128" as="geometry" />
        </mxCell>
      </root>
    </mxGraphModel>
  </diagram>
  <diagram id="lB9T69uRYUz3ZQP3roE_" name="workflow">
    <mxGraphModel dx="3835" dy="1106" grid="1" gridSize="10" guides="1" tooltips="1" connect="1" arrows="1" fold="1" page="1" pageScale="1" pageWidth="1169" pageHeight="827" math="0" shadow="0">
      <root>
        <mxCell id="0" />
        <mxCell id="1" parent="0" />
        <mxCell id="qpVN8cc5XX_ti-Qzjqtp-4" value="Home.html" style="shape=umlLifeline;perimeter=lifelinePerimeter;whiteSpace=wrap;html=1;container=1;collapsible=0;recursiveResize=0;outlineConnect=0;labelBackgroundColor=none;labelBorderColor=none;fontSize=16;fontColor=none;fillColor=#E5CCFF;shadow=0;" vertex="1" parent="1">
          <mxGeometry x="-2320" y="180" width="100" height="300" as="geometry" />
        </mxCell>
        <mxCell id="qpVN8cc5XX_ti-Qzjqtp-5" value="&lt;font style=&quot;font-size: 16px;&quot;&gt;HomeControler.java&lt;/font&gt;" style="shape=umlLifeline;perimeter=lifelinePerimeter;whiteSpace=wrap;html=1;container=1;collapsible=0;recursiveResize=0;outlineConnect=0;labelBackgroundColor=none;labelBorderColor=none;fontSize=16;fontColor=none;fillColor=#E5CCFF;shadow=0;" vertex="1" parent="1">
          <mxGeometry x="-2154" y="180" width="150" height="300" as="geometry" />
        </mxCell>
        <mxCell id="qpVN8cc5XX_ti-Qzjqtp-7" value="" style="html=1;points=[];perimeter=orthogonalPerimeter;labelBackgroundColor=none;labelBorderColor=none;fontSize=16;fontColor=none;fillColor=#E5CCFF;shadow=0;" vertex="1" parent="qpVN8cc5XX_ti-Qzjqtp-5">
          <mxGeometry x="70" y="60" width="10" height="60" as="geometry" />
        </mxCell>
        <mxCell id="qpVN8cc5XX_ti-Qzjqtp-10" value="post:/data" style="html=1;verticalAlign=bottom;startArrow=oval;endArrow=block;startSize=8;rounded=0;fontSize=16;fontColor=none;entryX=-0.1;entryY=0.125;entryDx=0;entryDy=0;entryPerimeter=0;shadow=0;" edge="1" parent="qpVN8cc5XX_ti-Qzjqtp-5">
          <mxGeometry x="-0.0674" y="10" relative="1" as="geometry">
            <mxPoint x="80" y="120" as="sourcePoint" />
            <mxPoint x="265.5" y="120" as="targetPoint" />
            <mxPoint x="1" as="offset" />
          </mxGeometry>
        </mxCell>
        <mxCell id="qpVN8cc5XX_ti-Qzjqtp-6" value="&lt;code&gt;HomeModel.java&lt;/code&gt;" style="shape=umlLifeline;perimeter=lifelinePerimeter;whiteSpace=wrap;html=1;container=1;collapsible=0;recursiveResize=0;outlineConnect=0;labelBackgroundColor=none;labelBorderColor=none;fontSize=16;fontColor=none;fillColor=#E5CCFF;shadow=0;" vertex="1" parent="1">
          <mxGeometry x="-1965" y="180" width="150" height="300" as="geometry" />
        </mxCell>
        <mxCell id="qpVN8cc5XX_ti-Qzjqtp-12" value="" style="html=1;points=[];perimeter=orthogonalPerimeter;labelBackgroundColor=none;labelBorderColor=none;fontSize=16;fontColor=none;fillColor=#E5CCFF;shadow=0;" vertex="1" parent="qpVN8cc5XX_ti-Qzjqtp-6">
          <mxGeometry x="70" y="120" width="10" height="60" as="geometry" />
        </mxCell>
        <mxCell id="qpVN8cc5XX_ti-Qzjqtp-8" value="post:/data" style="html=1;verticalAlign=bottom;startArrow=oval;endArrow=block;startSize=8;rounded=0;fontSize=16;fontColor=none;entryX=-0.1;entryY=0.125;entryDx=0;entryDy=0;entryPerimeter=0;shadow=0;" edge="1" target="qpVN8cc5XX_ti-Qzjqtp-7" parent="1" source="qpVN8cc5XX_ti-Qzjqtp-4">
          <mxGeometry x="-0.0674" y="10" relative="1" as="geometry">
            <mxPoint x="-2268" y="240" as="sourcePoint" />
            <mxPoint x="-2208" y="240" as="targetPoint" />
            <mxPoint x="1" as="offset" />
          </mxGeometry>
        </mxCell>
      </root>
    </mxGraphModel>
  </diagram>
</mxfile>
